<svg width="295" height="86" viewBox="0 0 295 86" fill="none" xmlns="http://www.w3.org/2000/svg">
<path fill-rule="evenodd" clip-rule="evenodd" d="M16.4167 3.83331C16.4167 2.17646 17.7598 0.833313 19.4167 0.833313H58.5833C60.2402 0.833313 61.5833 2.17646 61.5833 3.83331C61.5833 5.49017 60.2402 6.83331 58.5833 6.83331H19.4167C17.7598 6.83331 16.4167 5.49017 16.4167 3.83331Z" fill="white"/>
<path fill-rule="evenodd" clip-rule="evenodd" d="M8.58333 19.5C8.58333 17.8431 9.92648 16.5 11.5833 16.5H66.4167C68.0735 16.5 69.4167 17.8431 69.4167 19.5C69.4167 21.1568 68.0735 22.5 66.4167 22.5H11.5833C9.92648 22.5 8.58333 21.1568 8.58333 19.5Z" fill="white"/>
<path fill-rule="evenodd" clip-rule="evenodd" d="M11.5833 38.1666C8.91396 38.1666 6.75 40.3306 6.75 43V74.3333C6.75 77.0027 8.91396 79.1666 11.5833 79.1666H66.4167C69.086 79.1666 71.25 77.0027 71.25 74.3333V43C71.25 40.3306 69.086 38.1666 66.4167 38.1666H11.5833ZM0.75 43C0.75 37.0169 5.60025 32.1666 11.5833 32.1666H66.4167C72.3998 32.1666 77.25 37.0169 77.25 43V74.3333C77.25 80.3164 72.3998 85.1666 66.4167 85.1666H11.5833C5.60025 85.1666 0.75 80.3164 0.75 74.3333V43Z" fill="white"/>
<path d="M281.91 8.58998H294.56V78H281.91V8.58998Z" fill="white"/>
<path d="M255.002 65.35V8.58998H267.652V67.11C267.652 70.5566 266.699 73.2333 264.792 75.14C262.886 77.0466 259.842 78 255.662 78H247.742V68.32H251.812C253.059 68.32 253.902 68.1 254.342 67.66C254.782 67.22 255.002 66.45 255.002 65.35ZM242.902 8.58998V65.35C242.902 66.45 243.122 67.22 243.562 67.66C244.002 68.1 244.809 68.32 245.982 68.32H249.502V78H242.242C237.989 78 234.909 77.0466 233.002 75.14C231.169 73.2333 230.252 70.5566 230.252 67.11V8.58998H242.902Z" fill="white"/>
<path d="M172.486 20.8V65.9C172.486 67 172.706 67.77 173.146 68.21C173.586 68.65 174.393 68.87 175.566 68.87H178.536V78.11H171.716C167.536 78.11 164.493 77.1566 162.586 75.25C160.679 73.3433 159.726 70.6666 159.726 67.22V19.48C159.726 16.0333 160.679 13.3566 162.586 11.45C164.493 9.54331 167.536 8.58998 171.716 8.58998H179.086V17.83H175.566C174.393 17.83 173.586 18.05 173.146 18.49C172.706 18.8566 172.486 19.6266 172.486 20.8ZM196.576 41.59V50.5H178.316V41.59H196.576ZM183.816 29.93V20.8C183.816 19.6266 183.596 18.8566 183.156 18.49C182.789 18.05 181.983 17.83 180.736 17.83H177.326V8.58998H184.586C188.839 8.58998 191.883 9.54331 193.716 11.45C195.623 13.3566 196.576 16.0333 196.576 19.48V29.93H183.816ZM183.816 65.9V47.75H196.576V67.22C196.576 70.6666 195.623 73.3433 193.716 75.25C191.883 77.1566 188.839 78.11 184.586 78.11H177.546V68.87H180.736C181.983 68.87 182.789 68.65 183.156 68.21C183.596 67.77 183.816 67 183.816 65.9Z" fill="white"/>
<path d="M134.128 51.27V21.24C134.128 20.0666 133.908 19.2966 133.468 18.93C133.101 18.49 132.294 18.27 131.048 18.27H127.308V8.58998H134.788C139.041 8.58998 142.084 9.54331 143.918 11.45C145.824 13.3566 146.778 16.0333 146.778 19.48V51.27H134.128ZM134.128 65.35V47.53H146.778V67.11C146.778 70.5566 145.824 73.2333 143.918 75.14C142.084 77.0466 139.041 78 134.788 78H126.868V68.32H131.048C132.294 68.32 133.101 68.1 133.468 67.66C133.908 67.22 134.128 66.45 134.128 65.35ZM122.028 21.24V51.27H109.378V19.48C109.378 16.0333 110.331 13.3566 112.238 11.45C114.144 9.54331 117.188 8.58998 121.368 8.58998H128.848V18.27H125.218C123.971 18.27 123.128 18.49 122.688 18.93C122.248 19.2966 122.028 20.0666 122.028 21.24ZM122.028 46.98V65.35C122.028 66.45 122.248 67.22 122.688 67.66C123.128 68.1 123.971 68.32 125.218 68.32H128.738V78H121.368C117.188 78 114.144 77.0466 112.238 75.14C110.331 73.2333 109.378 70.5566 109.378 67.11V46.98H122.028Z" fill="white"/>
</svg>
