<svg width="294" height="85" viewBox="0 0 294 85" fill="none" xmlns="http://www.w3.org/2000/svg">
<path fill-rule="evenodd" clip-rule="evenodd" d="M15.6667 3C15.6667 1.34315 17.0098 0 18.6667 0H57.8333C59.4902 0 60.8333 1.34315 60.8333 3C60.8333 4.65685 59.4902 6 57.8333 6H18.6667C17.0098 6 15.6667 4.65685 15.6667 3Z" fill="black"/>
<path fill-rule="evenodd" clip-rule="evenodd" d="M7.83333 18.6667C7.83333 17.0098 9.17648 15.6667 10.8333 15.6667H65.6667C67.3235 15.6667 68.6667 17.0098 68.6667 18.6667C68.6667 20.3235 67.3235 21.6667 65.6667 21.6667H10.8333C9.17648 21.6667 7.83333 20.3235 7.83333 18.6667Z" fill="black"/>
<path fill-rule="evenodd" clip-rule="evenodd" d="M10.8333 37.3333C8.16396 37.3333 6 39.4973 6 42.1667V73.5C6 76.1694 8.16396 78.3333 10.8333 78.3333H65.6667C68.336 78.3333 70.5 76.1694 70.5 73.5V42.1667C70.5 39.4973 68.336 37.3333 65.6667 37.3333H10.8333ZM0 42.1667C0 36.1836 4.85025 31.3333 10.8333 31.3333H65.6667C71.6498 31.3333 76.5 36.1836 76.5 42.1667V73.5C76.5 79.4831 71.6498 84.3333 65.6667 84.3333H10.8333C4.85025 84.3333 0 79.4831 0 73.5V42.1667Z" fill="black"/>
<path d="M281.16 7.75666H293.81V77.1667H281.16V7.75666Z" fill="black"/>
<path d="M254.252 64.5167V7.75666H266.902V66.2767C266.902 69.7233 265.949 72.4 264.042 74.3067C262.136 76.2133 259.092 77.1667 254.912 77.1667H246.992V67.4867H251.062C252.309 67.4867 253.152 67.2667 253.592 66.8267C254.032 66.3867 254.252 65.6167 254.252 64.5167ZM242.152 7.75666V64.5167C242.152 65.6167 242.372 66.3867 242.812 66.8267C243.252 67.2667 244.059 67.4867 245.232 67.4867H248.752V77.1667H241.492C237.239 77.1667 234.159 76.2133 232.252 74.3067C230.419 72.4 229.502 69.7233 229.502 66.2767V7.75666H242.152Z" fill="black"/>
<path d="M171.736 19.9667V65.0667C171.736 66.1667 171.956 66.9367 172.396 67.3767C172.836 67.8167 173.643 68.0367 174.816 68.0367H177.786V77.2767H170.966C166.786 77.2767 163.743 76.3233 161.836 74.4167C159.929 72.51 158.976 69.8333 158.976 66.3867V18.6467C158.976 15.2 159.929 12.5233 161.836 10.6167C163.743 8.71 166.786 7.75666 170.966 7.75666H178.336V16.9967H174.816C173.643 16.9967 172.836 17.2167 172.396 17.6567C171.956 18.0233 171.736 18.7933 171.736 19.9667ZM195.826 40.7567V49.6667H177.566V40.7567H195.826ZM183.066 29.0967V19.9667C183.066 18.7933 182.846 18.0233 182.406 17.6567C182.039 17.2167 181.233 16.9967 179.986 16.9967H176.576V7.75666H183.836C188.089 7.75666 191.133 8.71 192.966 10.6167C194.873 12.5233 195.826 15.2 195.826 18.6467V29.0967H183.066ZM183.066 65.0667V46.9167H195.826V66.3867C195.826 69.8333 194.873 72.51 192.966 74.4167C191.133 76.3233 188.089 77.2767 183.836 77.2767H176.796V68.0367H179.986C181.233 68.0367 182.039 67.8167 182.406 67.3767C182.846 66.9367 183.066 66.1667 183.066 65.0667Z" fill="black"/>
<path d="M133.378 50.4367V20.4067C133.378 19.2333 133.158 18.4633 132.718 18.0967C132.351 17.6567 131.544 17.4367 130.298 17.4367H126.558V7.75666H134.038C138.291 7.75666 141.334 8.71 143.168 10.6167C145.074 12.5233 146.028 15.2 146.028 18.6467V50.4367H133.378ZM133.378 64.5167V46.6967H146.028V66.2767C146.028 69.7233 145.074 72.4 143.168 74.3067C141.334 76.2133 138.291 77.1667 134.038 77.1667H126.118V67.4867H130.298C131.544 67.4867 132.351 67.2667 132.718 66.8267C133.158 66.3867 133.378 65.6167 133.378 64.5167ZM121.278 20.4067V50.4367H108.628V18.6467C108.628 15.2 109.581 12.5233 111.488 10.6167C113.394 8.71 116.438 7.75666 120.618 7.75666H128.098V17.4367H124.468C123.221 17.4367 122.378 17.6567 121.938 18.0967C121.498 18.4633 121.278 19.2333 121.278 20.4067ZM121.278 46.1467V64.5167C121.278 65.6167 121.498 66.3867 121.938 66.8267C122.378 67.2667 123.221 67.4867 124.468 67.4867H127.988V77.1667H120.618C116.438 77.1667 113.394 76.2133 111.488 74.3067C109.581 72.4 108.628 69.7233 108.628 66.2767V46.1467H121.278Z" fill="black"/>
</svg>
